<svg width="20" height="20" viewBox="0 0 20 20" fill="none" xmlns="http://www.w3.org/2000/svg">
<path d="M12.0254 15.6829C11.8671 15.6829 11.7088 15.6246 11.5838 15.4996C11.4675 15.382 11.4023 15.2233 11.4023 15.0579C11.4023 14.8926 11.4675 14.7339 11.5838 14.6163L16.2004 9.99961L11.5838 5.38294C11.4675 5.26533 11.4023 5.10663 11.4023 4.94128C11.4023 4.77592 11.4675 4.61722 11.5838 4.49961C11.8254 4.25794 12.2254 4.25794 12.4671 4.49961L17.5254 9.55794C17.7671 9.79961 17.7671 10.1996 17.5254 10.4413L12.4671 15.4996C12.3421 15.6246 12.1838 15.6829 12.0254 15.6829Z" fill="#0069FF"/>
<path d="M16.943 10.625H2.91797C2.5763 10.625 2.29297 10.3417 2.29297 10C2.29297 9.65833 2.5763 9.375 2.91797 9.375H16.943C17.2846 9.375 17.568 9.65833 17.568 10C17.568 10.3417 17.2846 10.625 16.943 10.625Z" fill="#0069FF"/>
</svg>
