<svg width="287" height="52" viewBox="0 0 287 52" fill="none" xmlns="http://www.w3.org/2000/svg">
<rect width="142" height="52" rx="8" fill="white"/>
<path d="M29.5172 25.5555C29.5078 23.957 30.232 22.7523 31.6945 21.8641C30.8766 20.6922 29.6391 20.0477 28.0078 19.9234C26.4633 19.8016 24.7734 20.8234 24.1547 20.8234C23.5008 20.8234 22.0055 19.9656 20.8289 19.9656C18.4008 20.0031 15.8203 21.9016 15.8203 25.7641C15.8203 26.9055 16.0289 28.0844 16.4461 29.2984C17.0039 30.8969 19.0148 34.8133 21.1125 34.75C22.2094 34.7242 22.9852 33.9719 24.4125 33.9719C25.7977 33.9719 26.5148 34.75 27.7383 34.75C29.8547 34.7195 31.6734 31.1594 32.2031 29.5562C29.3648 28.218 29.5172 25.6375 29.5172 25.5555ZM27.0539 18.407C28.2422 16.9961 28.1344 15.7117 28.0992 15.25C27.0492 15.3109 25.8352 15.9648 25.1438 16.7687C24.382 17.6312 23.9344 18.6977 24.0305 19.9C25.1648 19.9867 26.2008 19.4031 27.0539 18.407Z" fill="black"/>
<path d="M48.6502 18.5H47.0662V18.036H48.5782C49.0209 18.036 49.3942 17.9587 49.6982 17.804C50.0022 17.6493 50.2342 17.4093 50.3942 17.084C50.5542 16.7587 50.6342 16.3373 50.6342 15.82C50.6342 15.3027 50.5542 14.8813 50.3942 14.556C50.2342 14.2307 50.0022 13.9907 49.6982 13.836C49.3942 13.6813 49.0209 13.604 48.5782 13.604H47.0662V13.14H48.6502C49.2155 13.14 49.6849 13.2467 50.0582 13.46C50.4315 13.668 50.7089 13.972 50.8902 14.372C51.0769 14.772 51.1702 15.2547 51.1702 15.82C51.1702 16.3853 51.0769 16.868 50.8902 17.268C50.7089 17.668 50.4315 17.9747 50.0582 18.188C49.6849 18.396 49.2155 18.5 48.6502 18.5ZM47.4102 18.5H46.8822V13.14H47.4102V18.5ZM53.7054 18.58C53.3587 18.58 53.0494 18.4973 52.7774 18.332C52.5054 18.1667 52.292 17.9347 52.1374 17.636C51.988 17.332 51.9134 16.98 51.9134 16.58C51.9134 16.1693 51.988 15.8147 52.1374 15.516C52.292 15.2173 52.5054 14.988 52.7774 14.828C53.0494 14.6627 53.3587 14.58 53.7054 14.58C54.0574 14.58 54.3694 14.6627 54.6414 14.828C54.9134 14.988 55.124 15.2173 55.2734 15.516C55.428 15.8147 55.5054 16.1693 55.5054 16.58C55.5054 16.98 55.428 17.332 55.2734 17.636C55.124 17.9347 54.9134 18.1667 54.6414 18.332C54.3694 18.4973 54.0574 18.58 53.7054 18.58ZM53.7054 18.132C53.9614 18.132 54.1827 18.0733 54.3694 17.956C54.5614 17.8387 54.7107 17.6653 54.8174 17.436C54.924 17.2013 54.9774 16.916 54.9774 16.58C54.9774 16.2387 54.924 15.9533 54.8174 15.724C54.7107 15.4893 54.5614 15.3133 54.3694 15.196C54.1827 15.0733 53.9614 15.012 53.7054 15.012C53.46 15.012 53.2414 15.0733 53.0494 15.196C52.8574 15.3133 52.708 15.4893 52.6014 15.724C52.4947 15.9533 52.4414 16.2387 52.4414 16.58C52.4414 16.916 52.4947 17.2013 52.6014 17.436C52.708 17.6653 52.8574 17.8387 53.0494 17.956C53.2414 18.0733 53.46 18.132 53.7054 18.132ZM57.5671 18.5H56.8871L55.8391 14.66H56.4231L57.0551 17.252L57.2311 18.108L57.4631 17.252L58.2791 14.66H58.9271L59.7431 17.252L59.9751 18.108L60.1511 17.252L60.7751 14.66H61.3671L60.3191 18.5H59.6391L58.8231 15.94L58.6071 15.1L58.3831 15.94L57.5671 18.5ZM65.0478 18.5H64.5198V16.028C64.5198 15.7187 64.4451 15.4733 64.2958 15.292C64.1464 15.1107 63.9038 15.02 63.5678 15.02C63.3011 15.02 63.0824 15.0787 62.9118 15.196C62.7464 15.3133 62.6238 15.468 62.5438 15.66C62.4691 15.852 62.4318 16.0573 62.4318 16.276L62.3918 16.02C62.4078 15.7693 62.4691 15.5347 62.5758 15.316C62.6824 15.0973 62.8344 14.9213 63.0318 14.788C63.2344 14.6493 63.4824 14.58 63.7758 14.58C64.1544 14.58 64.4611 14.692 64.6958 14.916C64.9304 15.1347 65.0478 15.4653 65.0478 15.908V18.5ZM62.4318 18.5H61.9038V14.66H62.4318V18.5ZM66.6661 18.5H66.1381V13.14H66.6661V18.5ZM69.3226 18.58C68.9759 18.58 68.6666 18.4973 68.3946 18.332C68.1226 18.1667 67.9092 17.9347 67.7546 17.636C67.6052 17.332 67.5306 16.98 67.5306 16.58C67.5306 16.1693 67.6052 15.8147 67.7546 15.516C67.9092 15.2173 68.1226 14.988 68.3946 14.828C68.6666 14.6627 68.9759 14.58 69.3226 14.58C69.6746 14.58 69.9866 14.6627 70.2586 14.828C70.5306 14.988 70.7412 15.2173 70.8906 15.516C71.0452 15.8147 71.1226 16.1693 71.1226 16.58C71.1226 16.98 71.0452 17.332 70.8906 17.636C70.7412 17.9347 70.5306 18.1667 70.2586 18.332C69.9866 18.4973 69.6746 18.58 69.3226 18.58ZM69.3226 18.132C69.5786 18.132 69.7999 18.0733 69.9866 17.956C70.1786 17.8387 70.3279 17.6653 70.4346 17.436C70.5412 17.2013 70.5946 16.916 70.5946 16.58C70.5946 16.2387 70.5412 15.9533 70.4346 15.724C70.3279 15.4893 70.1786 15.3133 69.9866 15.196C69.7999 15.0733 69.5786 15.012 69.3226 15.012C69.0772 15.012 68.8586 15.0733 68.6666 15.196C68.4746 15.3133 68.3252 15.4893 68.2186 15.724C68.1119 15.9533 68.0586 16.2387 68.0586 16.58C68.0586 16.916 68.1119 17.2013 68.2186 17.436C68.3252 17.6653 68.4746 17.8387 68.6666 17.956C68.8586 18.0733 69.0772 18.132 69.3226 18.132ZM75.2194 18.5H74.8674C74.7394 18.5 74.6274 18.4787 74.5314 18.436C74.4354 18.3933 74.3608 18.324 74.3074 18.228C74.2541 18.132 74.2274 18.004 74.2274 17.844V16.148L74.2114 15.964C74.2114 15.676 74.1394 15.452 73.9954 15.292C73.8568 15.132 73.6301 15.052 73.3154 15.052C73.0274 15.052 72.7821 15.124 72.5794 15.268C72.3768 15.412 72.2248 15.5907 72.1234 15.804L71.7554 15.436C71.8354 15.3027 71.9501 15.1693 72.0994 15.036C72.2488 14.9027 72.4301 14.7933 72.6434 14.708C72.8568 14.6227 73.0994 14.58 73.3714 14.58C73.8194 14.58 74.1581 14.7027 74.3874 14.948C74.6168 15.188 74.7314 15.524 74.7314 15.956V17.756C74.7314 17.8573 74.7528 17.9293 74.7954 17.972C74.8434 18.0093 74.9128 18.028 75.0034 18.028H75.2194V18.5ZM72.8354 18.58C72.5208 18.58 72.2754 18.5027 72.0994 18.348C71.9288 18.188 71.8434 17.98 71.8434 17.724C71.8434 17.4733 71.9288 17.2653 72.0994 17.1C72.2701 16.9293 72.4888 16.7827 72.7554 16.66L74.3074 15.956L74.3794 16.316L72.9794 16.98C72.7714 17.076 72.6168 17.1773 72.5154 17.284C72.4194 17.3853 72.3714 17.508 72.3714 17.652C72.3714 17.812 72.4248 17.9347 72.5314 18.02C72.6434 18.1 72.7954 18.14 72.9874 18.14C73.1634 18.14 73.3261 18.1107 73.4754 18.052C73.6301 17.988 73.7634 17.9053 73.8754 17.804C73.9874 17.6973 74.0728 17.5827 74.1314 17.46C74.1954 17.332 74.2274 17.2013 74.2274 17.068L74.2434 17.356C74.2114 17.548 74.1341 17.74 74.0114 17.932C73.8941 18.1187 73.7341 18.2733 73.5314 18.396C73.3341 18.5187 73.1021 18.58 72.8354 18.58ZM77.436 18.588C77.1053 18.588 76.82 18.5053 76.58 18.34C76.3453 18.1747 76.1613 17.9427 76.028 17.644C75.9 17.34 75.836 16.9853 75.836 16.58C75.836 16.1747 75.9 15.8227 76.028 15.524C76.1613 15.2253 76.3453 14.9933 76.58 14.828C76.82 14.6627 77.1053 14.58 77.436 14.58C77.724 14.58 77.9613 14.6467 78.148 14.78C78.34 14.908 78.484 15.0787 78.58 15.292C78.6813 15.5 78.74 15.724 78.756 15.964L78.724 16.22C78.724 16.0067 78.684 15.8093 78.604 15.628C78.524 15.4467 78.4013 15.3 78.236 15.188C78.0707 15.076 77.8573 15.02 77.596 15.02C77.2493 15.02 76.9587 15.1453 76.724 15.396C76.4893 15.6467 76.372 16.0413 76.372 16.58C76.372 17.1187 76.4893 17.516 76.724 17.772C76.9587 18.0227 77.2493 18.148 77.596 18.148C77.8573 18.148 78.0707 18.092 78.236 17.98C78.4013 17.868 78.524 17.7213 78.604 17.54C78.684 17.3533 78.724 17.1533 78.724 16.94L78.756 17.204C78.74 17.444 78.6813 17.668 78.58 17.876C78.484 18.084 78.34 18.2547 78.148 18.388C77.9613 18.5213 77.724 18.588 77.436 18.588ZM79.244 18.5H78.724V13.14H79.244V18.5ZM82.7305 18.5H82.2025V13.14H82.6745L85.2905 16.948L85.7545 17.66L85.7225 16.964V13.14H86.2505V18.5H85.7785L83.0905 14.596L82.6985 14.004L82.7305 14.604V18.5ZM88.9632 18.58C88.6165 18.58 88.3072 18.4973 88.0352 18.332C87.7632 18.1667 87.5499 17.9347 87.3952 17.636C87.2459 17.332 87.1712 16.98 87.1712 16.58C87.1712 16.1693 87.2459 15.8147 87.3952 15.516C87.5499 15.2173 87.7632 14.988 88.0352 14.828C88.3072 14.6627 88.6165 14.58 88.9632 14.58C89.3152 14.58 89.6272 14.6627 89.8992 14.828C90.1712 14.988 90.3819 15.2173 90.5312 15.516C90.6859 15.8147 90.7632 16.1693 90.7632 16.58C90.7632 16.98 90.6859 17.332 90.5312 17.636C90.3819 17.9347 90.1712 18.1667 89.8992 18.332C89.6272 18.4973 89.3152 18.58 88.9632 18.58ZM88.9632 18.132C89.2192 18.132 89.4405 18.0733 89.6272 17.956C89.8192 17.8387 89.9685 17.6653 90.0752 17.436C90.1819 17.2013 90.2352 16.916 90.2352 16.58C90.2352 16.2387 90.1819 15.9533 90.0752 15.724C89.9685 15.4893 89.8192 15.3133 89.6272 15.196C89.4405 15.0733 89.2192 15.012 88.9632 15.012C88.7179 15.012 88.4992 15.0733 88.3072 15.196C88.1152 15.3133 87.9659 15.4893 87.8592 15.724C87.7525 15.9533 87.6992 16.2387 87.6992 16.58C87.6992 16.916 87.7525 17.2013 87.8592 17.436C87.9659 17.6653 88.1152 17.8387 88.3072 17.956C88.4992 18.0733 88.7179 18.132 88.9632 18.132ZM92.8249 18.5H92.1449L91.0969 14.66H91.6809L92.3129 17.252L92.4889 18.108L92.7209 17.252L93.5369 14.66H94.1849L95.0009 17.252L95.2329 18.108L95.4089 17.252L96.0329 14.66H96.6249L95.5769 18.5H94.8969L94.0809 15.94L93.8649 15.1L93.6409 15.94L92.8249 18.5Z" fill="black"/>
<path d="M47.5855 36.5H46.2975L50.0775 27.12H51.2955L55.0755 36.5H53.7315L51.1275 29.836L50.6655 28.366L50.1895 29.836L47.5855 36.5ZM53.1995 33.882H48.1035V32.804H53.1995V33.882ZM59.4676 36.64C58.9449 36.64 58.5249 36.5187 58.2076 36.276C57.8903 36.0333 57.6523 35.7253 57.4936 35.352C57.3349 34.9787 57.2323 34.582 57.1856 34.162L57.2696 33.588C57.2696 33.9613 57.3256 34.302 57.4376 34.61C57.5589 34.9087 57.7503 35.1513 58.0116 35.338C58.2729 35.5247 58.6183 35.618 59.0476 35.618C59.5889 35.618 60.0509 35.4173 60.4336 35.016C60.8163 34.6053 61.0076 33.966 61.0076 33.098C61.0076 32.23 60.8163 31.5953 60.4336 31.194C60.0509 30.7927 59.5889 30.592 59.0476 30.592C58.6183 30.592 58.2729 30.6853 58.0116 30.872C57.7503 31.0493 57.5589 31.292 57.4376 31.6C57.3256 31.908 57.2696 32.2487 57.2696 32.622L57.1856 32.048C57.2323 31.628 57.3349 31.2267 57.4936 30.844C57.6523 30.4613 57.8903 30.1533 58.2076 29.92C58.5249 29.6867 58.9449 29.57 59.4676 29.57C60.0369 29.57 60.5269 29.7147 60.9376 30.004C61.3483 30.2933 61.6656 30.704 61.8896 31.236C62.1229 31.7587 62.2396 32.3793 62.2396 33.098C62.2396 33.8073 62.1229 34.428 61.8896 34.96C61.6656 35.492 61.3483 35.9073 60.9376 36.206C60.5269 36.4953 60.0369 36.64 59.4676 36.64ZM57.2696 39.104H56.0656V29.724H57.2696V39.104ZM67.1102 36.64C66.5875 36.64 66.1675 36.5187 65.8502 36.276C65.5328 36.0333 65.2948 35.7253 65.1362 35.352C64.9775 34.9787 64.8748 34.582 64.8282 34.162L64.9122 33.588C64.9122 33.9613 64.9682 34.302 65.0802 34.61C65.2015 34.9087 65.3928 35.1513 65.6542 35.338C65.9155 35.5247 66.2608 35.618 66.6902 35.618C67.2315 35.618 67.6935 35.4173 68.0762 35.016C68.4588 34.6053 68.6502 33.966 68.6502 33.098C68.6502 32.23 68.4588 31.5953 68.0762 31.194C67.6935 30.7927 67.2315 30.592 66.6902 30.592C66.2608 30.592 65.9155 30.6853 65.6542 30.872C65.3928 31.0493 65.2015 31.292 65.0802 31.6C64.9682 31.908 64.9122 32.2487 64.9122 32.622L64.8282 32.048C64.8748 31.628 64.9775 31.2267 65.1362 30.844C65.2948 30.4613 65.5328 30.1533 65.8502 29.92C66.1675 29.6867 66.5875 29.57 67.1102 29.57C67.6795 29.57 68.1695 29.7147 68.5802 30.004C68.9908 30.2933 69.3082 30.704 69.5322 31.236C69.7655 31.7587 69.8822 32.3793 69.8822 33.098C69.8822 33.8073 69.7655 34.428 69.5322 34.96C69.3082 35.492 68.9908 35.9073 68.5802 36.206C68.1695 36.4953 67.6795 36.64 67.1102 36.64ZM64.9122 39.104H63.7082V29.724H64.9122V39.104ZM72.5548 36.5H71.3508V27.12H72.5548V36.5ZM77.2836 36.64C76.6489 36.64 76.0843 36.4953 75.5896 36.206C75.1043 35.9167 74.7216 35.5107 74.4416 34.988C74.1709 34.456 74.0356 33.8307 74.0356 33.112C74.0356 32.3933 74.1709 31.7727 74.4416 31.25C74.7123 30.718 75.0856 30.3073 75.5616 30.018C76.0469 29.7287 76.5976 29.584 77.2136 29.584C77.8483 29.584 78.3943 29.7193 78.8516 29.99C79.3183 30.2513 79.6729 30.6247 79.9156 31.11C80.1676 31.5953 80.2936 32.174 80.2936 32.846C80.2936 32.9487 80.2889 33.0513 80.2796 33.154C80.2703 33.2473 80.2563 33.3267 80.2376 33.392H74.9596V32.51H79.5096L79.2156 32.93C79.2156 32.1647 79.0383 31.586 78.6836 31.194C78.3289 30.802 77.8389 30.606 77.2136 30.606C76.5976 30.606 76.1076 30.8113 75.7436 31.222C75.3889 31.6233 75.2116 32.23 75.2116 33.042V33.196C75.2116 33.7093 75.2956 34.148 75.4636 34.512C75.6316 34.876 75.8696 35.156 76.1776 35.352C76.4949 35.5387 76.8636 35.632 77.2836 35.632C77.7409 35.632 78.1096 35.562 78.3896 35.422C78.6789 35.282 78.9076 35.1093 79.0756 34.904C79.2436 34.6893 79.3696 34.4887 79.4536 34.302L80.1956 35.142C79.9436 35.5433 79.5796 35.8933 79.1036 36.192C78.6276 36.4907 78.0209 36.64 77.2836 36.64ZM88.7066 36.64C88.1186 36.64 87.5586 36.5607 87.0266 36.402C86.4946 36.2433 86.0279 35.9867 85.6266 35.632C85.2253 35.2773 84.9219 34.8107 84.7166 34.232L85.6406 33.42C85.7899 33.924 86.0279 34.33 86.3546 34.638C86.6906 34.9367 87.0686 35.156 87.4886 35.296C87.9179 35.4267 88.3239 35.492 88.7066 35.492C89.0519 35.492 89.3739 35.4453 89.6726 35.352C89.9713 35.2587 90.2046 35.1047 90.3726 34.89C90.5499 34.6753 90.6386 34.4 90.6386 34.064C90.6386 33.7 90.5499 33.42 90.3726 33.224C90.2046 33.028 89.9666 32.874 89.6586 32.762C89.3506 32.6407 88.9866 32.5287 88.5666 32.426L87.6846 32.23C87.3673 32.1553 87.0499 32.062 86.7326 31.95C86.4246 31.838 86.1399 31.684 85.8786 31.488C85.6173 31.292 85.4073 31.0447 85.2486 30.746C85.0899 30.4473 85.0106 30.074 85.0106 29.626C85.0106 29.0473 85.1553 28.5667 85.4446 28.184C85.7433 27.792 86.1306 27.498 86.6066 27.302C87.0919 27.0967 87.6053 26.994 88.1466 26.994C88.9959 26.994 89.7379 27.176 90.3726 27.54C91.0073 27.904 91.4693 28.436 91.7586 29.136L90.7366 29.948C90.5126 29.3133 90.1719 28.856 89.7146 28.576C89.2666 28.296 88.7346 28.156 88.1186 28.156C87.7733 28.156 87.4653 28.212 87.1946 28.324C86.9239 28.436 86.7093 28.5947 86.5506 28.8C86.3919 29.0053 86.3126 29.2527 86.3126 29.542C86.3126 30.0087 86.4713 30.354 86.7886 30.578C87.1059 30.7927 87.5306 30.9653 88.0626 31.096L89.0986 31.348C89.4346 31.432 89.7659 31.5347 90.0926 31.656C90.4286 31.7773 90.7273 31.936 90.9886 32.132C91.2593 32.328 91.4739 32.58 91.6326 32.888C91.8006 33.1867 91.8846 33.5693 91.8846 34.036C91.8846 34.5773 91.7446 35.044 91.4646 35.436C91.1939 35.8187 90.8159 36.1173 90.3306 36.332C89.8546 36.5373 89.3133 36.64 88.7066 36.64ZM95.4938 36.654C95.1204 36.654 94.7938 36.5793 94.5138 36.43C94.2338 36.2713 94.0144 36.052 93.8558 35.772C93.6971 35.492 93.6178 35.156 93.6178 34.764V28.856L94.8218 27.96V34.4C94.8218 34.8293 94.9104 35.1187 95.0878 35.268C95.2651 35.408 95.4891 35.478 95.7598 35.478C96.0584 35.478 96.3104 35.38 96.5158 35.184C96.7211 34.9787 96.8704 34.7687 96.9638 34.554L97.3698 35.758C97.2204 35.9913 96.9871 36.2013 96.6698 36.388C96.3524 36.5653 95.9604 36.654 95.4938 36.654ZM97.0478 30.676H92.5118V29.724H97.0478V30.676ZM100.795 36.64C100.17 36.64 99.6146 36.4953 99.1293 36.206C98.6533 35.9167 98.2799 35.506 98.0093 34.974C97.7386 34.442 97.6033 33.8213 97.6033 33.112C97.6033 32.3933 97.7386 31.7727 98.0093 31.25C98.2799 30.718 98.6533 30.3073 99.1293 30.018C99.6146 29.7287 100.17 29.584 100.795 29.584C101.421 29.584 101.971 29.7287 102.447 30.018C102.933 30.3073 103.311 30.718 103.581 31.25C103.861 31.7727 104.001 32.3933 104.001 33.112C104.001 33.8213 103.861 34.442 103.581 34.974C103.311 35.506 102.933 35.9167 102.447 36.206C101.971 36.4953 101.421 36.64 100.795 36.64ZM100.795 35.618C101.187 35.618 101.528 35.5293 101.817 35.352C102.116 35.1653 102.349 34.89 102.517 34.526C102.685 34.1527 102.769 33.6813 102.769 33.112C102.769 32.5427 102.685 32.076 102.517 31.712C102.349 31.3387 102.116 31.0633 101.817 30.886C101.528 30.6993 101.187 30.606 100.795 30.606C100.413 30.606 100.072 30.6993 99.7733 30.886C99.4839 31.0633 99.2553 31.3387 99.0873 31.712C98.9286 32.076 98.8493 32.5427 98.8493 33.112C98.8493 33.6813 98.9286 34.1527 99.0873 34.526C99.2553 34.89 99.4839 35.1653 99.7733 35.352C100.072 35.5293 100.413 35.618 100.795 35.618ZM106.734 36.5H105.53V29.724H106.734V36.5ZM106.734 32.664L106.65 32.09C106.688 31.7727 106.758 31.4647 106.86 31.166C106.972 30.8673 107.117 30.6013 107.294 30.368C107.481 30.1253 107.705 29.934 107.966 29.794C108.228 29.654 108.526 29.584 108.862 29.584C109.226 29.584 109.553 29.7053 109.842 29.948C110.141 30.1907 110.29 30.5547 110.29 31.04C110.29 31.3293 110.258 31.5767 110.192 31.782C110.136 31.978 110.08 32.118 110.024 32.202H108.694C108.806 32.0993 108.9 31.9547 108.974 31.768C109.058 31.5813 109.1 31.3947 109.1 31.208C109.1 31.012 109.044 30.844 108.932 30.704C108.83 30.5547 108.652 30.48 108.4 30.48C108.111 30.48 107.84 30.5827 107.588 30.788C107.336 30.9933 107.131 31.2593 106.972 31.586C106.814 31.9127 106.734 32.272 106.734 32.664ZM114.116 36.64C113.481 36.64 112.916 36.4953 112.422 36.206C111.936 35.9167 111.554 35.5107 111.274 34.988C111.003 34.456 110.868 33.8307 110.868 33.112C110.868 32.3933 111.003 31.7727 111.274 31.25C111.544 30.718 111.918 30.3073 112.394 30.018C112.879 29.7287 113.43 29.584 114.046 29.584C114.68 29.584 115.226 29.7193 115.684 29.99C116.15 30.2513 116.505 30.6247 116.748 31.11C117 31.5953 117.126 32.174 117.126 32.846C117.126 32.9487 117.121 33.0513 117.112 33.154C117.102 33.2473 117.088 33.3267 117.07 33.392H111.792V32.51H116.342L116.048 32.93C116.048 32.1647 115.87 31.586 115.516 31.194C115.161 30.802 114.671 30.606 114.046 30.606C113.43 30.606 112.94 30.8113 112.576 31.222C112.221 31.6233 112.044 32.23 112.044 33.042V33.196C112.044 33.7093 112.128 34.148 112.296 34.512C112.464 34.876 112.702 35.156 113.01 35.352C113.327 35.5387 113.696 35.632 114.116 35.632C114.573 35.632 114.942 35.562 115.222 35.422C115.511 35.282 115.74 35.1093 115.908 34.904C116.076 34.6893 116.202 34.4887 116.286 34.302L117.028 35.142C116.776 35.5433 116.412 35.8933 115.936 36.192C115.46 36.4907 114.853 36.64 114.116 36.64Z" fill="black"/>
<rect x="158" width="129" height="52" rx="8" fill="white"/>
<g clip-path="url(#clip0_1_302)">
<path d="M184.753 28.3627C187.289 26.9316 189.212 25.8412 189.377 25.7564C189.907 25.4667 190.455 24.6999 189.377 24.1043C189.029 23.917 187.156 22.8605 184.753 21.498L181.422 24.9558L184.753 28.3626V28.3627Z" fill="#FFD900"/>
<path d="M181.42 24.955L170.812 35.9424C171.061 35.9763 171.343 35.9084 171.674 35.7212C172.37 35.3298 179.746 31.19 184.751 28.3627L181.42 24.955Z" fill="#F43249"/>
<path d="M181.421 24.9553L184.752 21.5146C184.752 21.5146 172.421 14.5982 171.675 14.1899C171.394 14.0188 171.079 13.968 170.797 14.0188L181.421 24.9553Z" fill="#00EE76"/>
<path d="M181.42 24.9554L170.796 14.0188C170.364 14.1213 170 14.5128 170 15.3134V34.6481C170 35.381 170.282 35.9088 170.812 35.9597L181.42 24.9554Z" fill="#00D3FF"/>
</g>
<path d="M202.65 18.5H201.066V18.036H202.578C203.021 18.036 203.394 17.9587 203.698 17.804C204.002 17.6493 204.234 17.4093 204.394 17.084C204.554 16.7587 204.634 16.3373 204.634 15.82C204.634 15.3027 204.554 14.8813 204.394 14.556C204.234 14.2307 204.002 13.9907 203.698 13.836C203.394 13.6813 203.021 13.604 202.578 13.604H201.066V13.14H202.65C203.216 13.14 203.685 13.2467 204.058 13.46C204.432 13.668 204.709 13.972 204.89 14.372C205.077 14.772 205.17 15.2547 205.17 15.82C205.17 16.3853 205.077 16.868 204.89 17.268C204.709 17.668 204.432 17.9747 204.058 18.188C203.685 18.396 203.216 18.5 202.65 18.5ZM201.41 18.5H200.882V13.14H201.41V18.5ZM207.705 18.58C207.359 18.58 207.049 18.4973 206.777 18.332C206.505 18.1667 206.292 17.9347 206.137 17.636C205.988 17.332 205.913 16.98 205.913 16.58C205.913 16.1693 205.988 15.8147 206.137 15.516C206.292 15.2173 206.505 14.988 206.777 14.828C207.049 14.6627 207.359 14.58 207.705 14.58C208.057 14.58 208.369 14.6627 208.641 14.828C208.913 14.988 209.124 15.2173 209.273 15.516C209.428 15.8147 209.505 16.1693 209.505 16.58C209.505 16.98 209.428 17.332 209.273 17.636C209.124 17.9347 208.913 18.1667 208.641 18.332C208.369 18.4973 208.057 18.58 207.705 18.58ZM207.705 18.132C207.961 18.132 208.183 18.0733 208.369 17.956C208.561 17.8387 208.711 17.6653 208.817 17.436C208.924 17.2013 208.977 16.916 208.977 16.58C208.977 16.2387 208.924 15.9533 208.817 15.724C208.711 15.4893 208.561 15.3133 208.369 15.196C208.183 15.0733 207.961 15.012 207.705 15.012C207.46 15.012 207.241 15.0733 207.049 15.196C206.857 15.3133 206.708 15.4893 206.601 15.724C206.495 15.9533 206.441 16.2387 206.441 16.58C206.441 16.916 206.495 17.2013 206.601 17.436C206.708 17.6653 206.857 17.8387 207.049 17.956C207.241 18.0733 207.46 18.132 207.705 18.132ZM211.567 18.5H210.887L209.839 14.66H210.423L211.055 17.252L211.231 18.108L211.463 17.252L212.279 14.66H212.927L213.743 17.252L213.975 18.108L214.151 17.252L214.775 14.66H215.367L214.319 18.5H213.639L212.823 15.94L212.607 15.1L212.383 15.94L211.567 18.5ZM219.048 18.5H218.52V16.028C218.52 15.7187 218.445 15.4733 218.296 15.292C218.146 15.1107 217.904 15.02 217.568 15.02C217.301 15.02 217.082 15.0787 216.912 15.196C216.746 15.3133 216.624 15.468 216.544 15.66C216.469 15.852 216.432 16.0573 216.432 16.276L216.392 16.02C216.408 15.7693 216.469 15.5347 216.576 15.316C216.682 15.0973 216.834 14.9213 217.032 14.788C217.234 14.6493 217.482 14.58 217.776 14.58C218.154 14.58 218.461 14.692 218.696 14.916C218.93 15.1347 219.048 15.4653 219.048 15.908V18.5ZM216.432 18.5H215.904V14.66H216.432V18.5ZM220.666 18.5H220.138V13.14H220.666V18.5ZM223.323 18.58C222.976 18.58 222.667 18.4973 222.395 18.332C222.123 18.1667 221.909 17.9347 221.755 17.636C221.605 17.332 221.531 16.98 221.531 16.58C221.531 16.1693 221.605 15.8147 221.755 15.516C221.909 15.2173 222.123 14.988 222.395 14.828C222.667 14.6627 222.976 14.58 223.323 14.58C223.675 14.58 223.987 14.6627 224.259 14.828C224.531 14.988 224.741 15.2173 224.891 15.516C225.045 15.8147 225.123 16.1693 225.123 16.58C225.123 16.98 225.045 17.332 224.891 17.636C224.741 17.9347 224.531 18.1667 224.259 18.332C223.987 18.4973 223.675 18.58 223.323 18.58ZM223.323 18.132C223.579 18.132 223.8 18.0733 223.987 17.956C224.179 17.8387 224.328 17.6653 224.435 17.436C224.541 17.2013 224.595 16.916 224.595 16.58C224.595 16.2387 224.541 15.9533 224.435 15.724C224.328 15.4893 224.179 15.3133 223.987 15.196C223.8 15.0733 223.579 15.012 223.323 15.012C223.077 15.012 222.859 15.0733 222.667 15.196C222.475 15.3133 222.325 15.4893 222.219 15.724C222.112 15.9533 222.059 16.2387 222.059 16.58C222.059 16.916 222.112 17.2013 222.219 17.436C222.325 17.6653 222.475 17.8387 222.667 17.956C222.859 18.0733 223.077 18.132 223.323 18.132ZM229.219 18.5H228.867C228.739 18.5 228.627 18.4787 228.531 18.436C228.435 18.3933 228.361 18.324 228.307 18.228C228.254 18.132 228.227 18.004 228.227 17.844V16.148L228.211 15.964C228.211 15.676 228.139 15.452 227.995 15.292C227.857 15.132 227.63 15.052 227.315 15.052C227.027 15.052 226.782 15.124 226.579 15.268C226.377 15.412 226.225 15.5907 226.123 15.804L225.755 15.436C225.835 15.3027 225.95 15.1693 226.099 15.036C226.249 14.9027 226.43 14.7933 226.643 14.708C226.857 14.6227 227.099 14.58 227.371 14.58C227.819 14.58 228.158 14.7027 228.387 14.948C228.617 15.188 228.731 15.524 228.731 15.956V17.756C228.731 17.8573 228.753 17.9293 228.795 17.972C228.843 18.0093 228.913 18.028 229.003 18.028H229.219V18.5ZM226.835 18.58C226.521 18.58 226.275 18.5027 226.099 18.348C225.929 18.188 225.843 17.98 225.843 17.724C225.843 17.4733 225.929 17.2653 226.099 17.1C226.27 16.9293 226.489 16.7827 226.755 16.66L228.307 15.956L228.379 16.316L226.979 16.98C226.771 17.076 226.617 17.1773 226.515 17.284C226.419 17.3853 226.371 17.508 226.371 17.652C226.371 17.812 226.425 17.9347 226.531 18.02C226.643 18.1 226.795 18.14 226.987 18.14C227.163 18.14 227.326 18.1107 227.475 18.052C227.63 17.988 227.763 17.9053 227.875 17.804C227.987 17.6973 228.073 17.5827 228.131 17.46C228.195 17.332 228.227 17.2013 228.227 17.068L228.243 17.356C228.211 17.548 228.134 17.74 228.011 17.932C227.894 18.1187 227.734 18.2733 227.531 18.396C227.334 18.5187 227.102 18.58 226.835 18.58ZM231.436 18.588C231.105 18.588 230.82 18.5053 230.58 18.34C230.345 18.1747 230.161 17.9427 230.028 17.644C229.9 17.34 229.836 16.9853 229.836 16.58C229.836 16.1747 229.9 15.8227 230.028 15.524C230.161 15.2253 230.345 14.9933 230.58 14.828C230.82 14.6627 231.105 14.58 231.436 14.58C231.724 14.58 231.961 14.6467 232.148 14.78C232.34 14.908 232.484 15.0787 232.58 15.292C232.681 15.5 232.74 15.724 232.756 15.964L232.724 16.22C232.724 16.0067 232.684 15.8093 232.604 15.628C232.524 15.4467 232.401 15.3 232.236 15.188C232.071 15.076 231.857 15.02 231.596 15.02C231.249 15.02 230.959 15.1453 230.724 15.396C230.489 15.6467 230.372 16.0413 230.372 16.58C230.372 17.1187 230.489 17.516 230.724 17.772C230.959 18.0227 231.249 18.148 231.596 18.148C231.857 18.148 232.071 18.092 232.236 17.98C232.401 17.868 232.524 17.7213 232.604 17.54C232.684 17.3533 232.724 17.1533 232.724 16.94L232.756 17.204C232.74 17.444 232.681 17.668 232.58 17.876C232.484 18.084 232.34 18.2547 232.148 18.388C231.961 18.5213 231.724 18.588 231.436 18.588ZM233.244 18.5H232.724V13.14H233.244V18.5ZM236.731 18.5H236.203V13.14H236.675L239.291 16.948L239.755 17.66L239.723 16.964V13.14H240.251V18.5H239.779L237.091 14.596L236.699 14.004L236.731 14.604V18.5ZM242.963 18.58C242.617 18.58 242.307 18.4973 242.035 18.332C241.763 18.1667 241.55 17.9347 241.395 17.636C241.246 17.332 241.171 16.98 241.171 16.58C241.171 16.1693 241.246 15.8147 241.395 15.516C241.55 15.2173 241.763 14.988 242.035 14.828C242.307 14.6627 242.617 14.58 242.963 14.58C243.315 14.58 243.627 14.6627 243.899 14.828C244.171 14.988 244.382 15.2173 244.531 15.516C244.686 15.8147 244.763 16.1693 244.763 16.58C244.763 16.98 244.686 17.332 244.531 17.636C244.382 17.9347 244.171 18.1667 243.899 18.332C243.627 18.4973 243.315 18.58 242.963 18.58ZM242.963 18.132C243.219 18.132 243.441 18.0733 243.627 17.956C243.819 17.8387 243.969 17.6653 244.075 17.436C244.182 17.2013 244.235 16.916 244.235 16.58C244.235 16.2387 244.182 15.9533 244.075 15.724C243.969 15.4893 243.819 15.3133 243.627 15.196C243.441 15.0733 243.219 15.012 242.963 15.012C242.718 15.012 242.499 15.0733 242.307 15.196C242.115 15.3133 241.966 15.4893 241.859 15.724C241.753 15.9533 241.699 16.2387 241.699 16.58C241.699 16.916 241.753 17.2013 241.859 17.436C241.966 17.6653 242.115 17.8387 242.307 17.956C242.499 18.0733 242.718 18.132 242.963 18.132ZM246.825 18.5H246.145L245.097 14.66H245.681L246.313 17.252L246.489 18.108L246.721 17.252L247.537 14.66H248.185L249.001 17.252L249.233 18.108L249.409 17.252L250.033 14.66H250.625L249.577 18.5H248.897L248.081 15.94L247.865 15.1L247.641 15.94L246.825 18.5Z" fill="black"/>
<path d="M205.288 33.322H201.942V32.244H205.092C205.465 32.244 205.824 32.188 206.17 32.076C206.515 31.964 206.795 31.768 207.01 31.488C207.224 31.1987 207.332 30.802 207.332 30.298C207.332 29.7287 207.224 29.2947 207.01 28.996C206.795 28.6973 206.515 28.492 206.17 28.38C205.824 28.2587 205.465 28.198 205.092 28.198H201.942V27.12H205.288C205.904 27.12 206.459 27.2367 206.954 27.47C207.458 27.694 207.854 28.044 208.144 28.52C208.442 28.9867 208.592 29.5793 208.592 30.298C208.592 30.9607 208.442 31.516 208.144 31.964C207.854 32.412 207.458 32.7527 206.954 32.986C206.459 33.21 205.904 33.322 205.288 33.322ZM202.74 36.5H201.536V27.12H202.74V36.5ZM211.076 36.5H209.872V27.12H211.076V36.5ZM218.661 36.5H217.877C217.644 36.5 217.434 36.458 217.247 36.374C217.07 36.29 216.93 36.1547 216.827 35.968C216.724 35.7813 216.673 35.5293 216.673 35.212V32.398L216.631 32.202C216.631 31.7727 216.524 31.4133 216.309 31.124C216.104 30.8347 215.716 30.69 215.147 30.69C214.662 30.69 214.256 30.816 213.929 31.068C213.612 31.3107 213.364 31.6187 213.187 31.992L212.361 31.138C212.501 30.9047 212.702 30.6713 212.963 30.438C213.234 30.1953 213.565 29.9947 213.957 29.836C214.349 29.668 214.792 29.584 215.287 29.584C216.118 29.584 216.752 29.8173 217.191 30.284C217.63 30.7413 217.849 31.376 217.849 32.188V34.974C217.849 35.1327 217.882 35.2447 217.947 35.31C218.012 35.366 218.106 35.394 218.227 35.394H218.661V36.5ZM214.321 36.64C213.752 36.64 213.308 36.4953 212.991 36.206C212.683 35.9073 212.529 35.534 212.529 35.086C212.529 34.6287 212.683 34.2507 212.991 33.952C213.299 33.644 213.696 33.3827 214.181 33.168L216.841 31.978L217.023 32.79L214.685 33.882C214.368 34.0407 214.134 34.1993 213.985 34.358C213.836 34.5073 213.761 34.6847 213.761 34.89C213.761 35.1233 213.84 35.3053 213.999 35.436C214.158 35.5667 214.396 35.632 214.713 35.632C215.002 35.632 215.264 35.59 215.497 35.506C215.74 35.4127 215.945 35.2867 216.113 35.128C216.29 34.9693 216.426 34.7873 216.519 34.582C216.622 34.3767 216.673 34.148 216.673 33.896L216.715 34.54C216.659 34.8573 216.538 35.1793 216.351 35.506C216.164 35.8233 215.903 36.094 215.567 36.318C215.231 36.5327 214.816 36.64 214.321 36.64ZM220.874 38.726C220.557 38.726 220.268 38.67 220.006 38.558C219.745 38.4553 219.521 38.32 219.334 38.152C219.157 37.984 219.017 37.8067 218.914 37.62L219.572 36.71C219.731 36.9713 219.908 37.1907 220.104 37.368C220.31 37.5547 220.571 37.648 220.888 37.648C221.159 37.648 221.388 37.5687 221.574 37.41C221.77 37.2513 221.934 36.9667 222.064 36.556L222.33 35.73L222.624 36.122L221.448 36.136L219.166 29.724H220.468L221.924 34.078L222.4 35.534L222.876 34.078L224.318 29.724H225.62L223.016 37.06C222.792 37.676 222.498 38.1053 222.134 38.348C221.77 38.6 221.35 38.726 220.874 38.726ZM233.462 36.64C232.874 36.64 232.314 36.5607 231.782 36.402C231.25 36.2433 230.784 35.9867 230.382 35.632C229.981 35.2773 229.678 34.8107 229.472 34.232L230.396 33.42C230.546 33.924 230.784 34.33 231.11 34.638C231.446 34.9367 231.824 35.156 232.244 35.296C232.674 35.4267 233.08 35.492 233.462 35.492C233.808 35.492 234.13 35.4453 234.428 35.352C234.727 35.2587 234.96 35.1047 235.128 34.89C235.306 34.6753 235.394 34.4 235.394 34.064C235.394 33.7 235.306 33.42 235.128 33.224C234.96 33.028 234.722 32.874 234.414 32.762C234.106 32.6407 233.742 32.5287 233.322 32.426L232.44 32.23C232.123 32.1553 231.806 32.062 231.488 31.95C231.18 31.838 230.896 31.684 230.634 31.488C230.373 31.292 230.163 31.0447 230.004 30.746C229.846 30.4473 229.766 30.074 229.766 29.626C229.766 29.0473 229.911 28.5667 230.2 28.184C230.499 27.792 230.886 27.498 231.362 27.302C231.848 27.0967 232.361 26.994 232.902 26.994C233.752 26.994 234.494 27.176 235.128 27.54C235.763 27.904 236.225 28.436 236.514 29.136L235.492 29.948C235.268 29.3133 234.928 28.856 234.47 28.576C234.022 28.296 233.49 28.156 232.874 28.156C232.529 28.156 232.221 28.212 231.95 28.324C231.68 28.436 231.465 28.5947 231.306 28.8C231.148 29.0053 231.068 29.2527 231.068 29.542C231.068 30.0087 231.227 30.354 231.544 30.578C231.862 30.7927 232.286 30.9653 232.818 31.096L233.854 31.348C234.19 31.432 234.522 31.5347 234.848 31.656C235.184 31.7773 235.483 31.936 235.744 32.132C236.015 32.328 236.23 32.58 236.388 32.888C236.556 33.1867 236.64 33.5693 236.64 34.036C236.64 34.5773 236.5 35.044 236.22 35.436C235.95 35.8187 235.572 36.1173 235.086 36.332C234.61 36.5373 234.069 36.64 233.462 36.64ZM240.25 36.654C239.876 36.654 239.55 36.5793 239.27 36.43C238.99 36.2713 238.77 36.052 238.612 35.772C238.453 35.492 238.374 35.156 238.374 34.764V28.856L239.578 27.96V34.4C239.578 34.8293 239.666 35.1187 239.844 35.268C240.021 35.408 240.245 35.478 240.516 35.478C240.814 35.478 241.066 35.38 241.272 35.184C241.477 34.9787 241.626 34.7687 241.72 34.554L242.126 35.758C241.976 35.9913 241.743 36.2013 241.426 36.388C241.108 36.5653 240.716 36.654 240.25 36.654ZM241.804 30.676H237.268V29.724H241.804V30.676ZM245.551 36.64C244.926 36.64 244.37 36.4953 243.885 36.206C243.409 35.9167 243.036 35.506 242.765 34.974C242.494 34.442 242.359 33.8213 242.359 33.112C242.359 32.3933 242.494 31.7727 242.765 31.25C243.036 30.718 243.409 30.3073 243.885 30.018C244.37 29.7287 244.926 29.584 245.551 29.584C246.176 29.584 246.727 29.7287 247.203 30.018C247.688 30.3073 248.066 30.718 248.337 31.25C248.617 31.7727 248.757 32.3933 248.757 33.112C248.757 33.8213 248.617 34.442 248.337 34.974C248.066 35.506 247.688 35.9167 247.203 36.206C246.727 36.4953 246.176 36.64 245.551 36.64ZM245.551 35.618C245.943 35.618 246.284 35.5293 246.573 35.352C246.872 35.1653 247.105 34.89 247.273 34.526C247.441 34.1527 247.525 33.6813 247.525 33.112C247.525 32.5427 247.441 32.076 247.273 31.712C247.105 31.3387 246.872 31.0633 246.573 30.886C246.284 30.6993 245.943 30.606 245.551 30.606C245.168 30.606 244.828 30.6993 244.529 30.886C244.24 31.0633 244.011 31.3387 243.843 31.712C243.684 32.076 243.605 32.5427 243.605 33.112C243.605 33.6813 243.684 34.1527 243.843 34.526C244.011 34.89 244.24 35.1653 244.529 35.352C244.828 35.5293 245.168 35.618 245.551 35.618ZM251.49 36.5H250.286V29.724H251.49V36.5ZM251.49 32.664L251.406 32.09C251.444 31.7727 251.514 31.4647 251.616 31.166C251.728 30.8673 251.873 30.6013 252.05 30.368C252.237 30.1253 252.461 29.934 252.722 29.794C252.984 29.654 253.282 29.584 253.618 29.584C253.982 29.584 254.309 29.7053 254.598 29.948C254.897 30.1907 255.046 30.5547 255.046 31.04C255.046 31.3293 255.014 31.5767 254.948 31.782C254.892 31.978 254.836 32.118 254.78 32.202H253.45C253.562 32.0993 253.656 31.9547 253.73 31.768C253.814 31.5813 253.856 31.3947 253.856 31.208C253.856 31.012 253.8 30.844 253.688 30.704C253.586 30.5547 253.408 30.48 253.156 30.48C252.867 30.48 252.596 30.5827 252.344 30.788C252.092 30.9933 251.887 31.2593 251.728 31.586C251.57 31.9127 251.49 32.272 251.49 32.664ZM258.871 36.64C258.237 36.64 257.672 36.4953 257.177 36.206C256.692 35.9167 256.309 35.5107 256.029 34.988C255.759 34.456 255.623 33.8307 255.623 33.112C255.623 32.3933 255.759 31.7727 256.029 31.25C256.3 30.718 256.673 30.3073 257.149 30.018C257.635 29.7287 258.185 29.584 258.801 29.584C259.436 29.584 259.982 29.7193 260.439 29.99C260.906 30.2513 261.261 30.6247 261.503 31.11C261.755 31.5953 261.881 32.174 261.881 32.846C261.881 32.9487 261.877 33.0513 261.867 33.154C261.858 33.2473 261.844 33.3267 261.825 33.392H256.547V32.51H261.097L260.803 32.93C260.803 32.1647 260.626 31.586 260.271 31.194C259.917 30.802 259.427 30.606 258.801 30.606C258.185 30.606 257.695 30.8113 257.331 31.222C256.977 31.6233 256.799 32.23 256.799 33.042V33.196C256.799 33.7093 256.883 34.148 257.051 34.512C257.219 34.876 257.457 35.156 257.765 35.352C258.083 35.5387 258.451 35.632 258.871 35.632C259.329 35.632 259.697 35.562 259.977 35.422C260.267 35.282 260.495 35.1093 260.663 34.904C260.831 34.6893 260.957 34.4887 261.041 34.302L261.783 35.142C261.531 35.5433 261.167 35.8933 260.691 36.192C260.215 36.4907 259.609 36.64 258.871 36.64Z" fill="black"/>
<defs>
<clipPath id="clip0_1_302">
<rect width="20" height="22" fill="white" transform="translate(170 14)"/>
</clipPath>
</defs>
</svg>
